<svg xmlns="http://www.w3.org/2000/svg"><symbol viewBox="0 0 24 24" id="apps"> <g xmlns="http://www.w3.org/2000/svg" clip-path="url(#clip0_5_1246)"> <path d="M7 0H4C2.93913 0 1.92172 0.421427 1.17157 1.17157C0.421427 1.92172 0 2.93913 0 4L0 7C0 8.06087 0.421427 9.07828 1.17157 9.82843C1.92172 10.5786 2.93913 11 4 11H7C8.06087 11 9.07828 10.5786 9.82843 9.82843C10.5786 9.07828 11 8.06087 11 7V4C11 2.93913 10.5786 1.92172 9.82843 1.17157C9.07828 0.421427 8.06087 0 7 0V0ZM9 7C9 7.53043 8.78929 8.03914 8.41421 8.41421C8.03914 8.78929 7.53043 9 7 9H4C3.46957 9 2.96086 8.78929 2.58579 8.41421C2.21071 8.03914 2 7.53043 2 7V4C2 3.46957 2.21071 2.96086 2.58579 2.58579C2.96086 2.21071 3.46957 2 4 2H7C7.53043 2 8.03914 2.21071 8.41421 2.58579C8.78929 2.96086 9 3.46957 9 4V7Z"></path> <path d="M20 0H17C15.9391 0 14.9217 0.421427 14.1716 1.17157C13.4214 1.92172 13 2.93913 13 4V7C13 8.06087 13.4214 9.07828 14.1716 9.82843C14.9217 10.5786 15.9391 11 17 11H20C21.0609 11 22.0783 10.5786 22.8284 9.82843C23.5786 9.07828 24 8.06087 24 7V4C24 2.93913 23.5786 1.92172 22.8284 1.17157C22.0783 0.421427 21.0609 0 20 0V0ZM22 7C22 7.53043 21.7893 8.03914 21.4142 8.41421C21.0391 8.78929 20.5304 9 20 9H17C16.4696 9 15.9609 8.78929 15.5858 8.41421C15.2107 8.03914 15 7.53043 15 7V4C15 3.46957 15.2107 2.96086 15.5858 2.58579C15.9609 2.21071 16.4696 2 17 2H20C20.5304 2 21.0391 2.21071 21.4142 2.58579C21.7893 2.96086 22 3.46957 22 4V7Z"></path> <path d="M7 13H4C2.93913 13 1.92172 13.4214 1.17157 14.1716C0.421427 14.9217 0 15.9391 0 17L0 20C0 21.0609 0.421427 22.0783 1.17157 22.8284C1.92172 23.5786 2.93913 24 4 24H7C8.06087 24 9.07828 23.5786 9.82843 22.8284C10.5786 22.0783 11 21.0609 11 20V17C11 15.9391 10.5786 14.9217 9.82843 14.1716C9.07828 13.4214 8.06087 13 7 13ZM9 20C9 20.5304 8.78929 21.0391 8.41421 21.4142C8.03914 21.7893 7.53043 22 7 22H4C3.46957 22 2.96086 21.7893 2.58579 21.4142C2.21071 21.0391 2 20.5304 2 20V17C2 16.4696 2.21071 15.9609 2.58579 15.5858C2.96086 15.2107 3.46957 15 4 15H7C7.53043 15 8.03914 15.2107 8.41421 15.5858C8.78929 15.9609 9 16.4696 9 17V20Z"></path> <path d="M20 13H17C15.9391 13 14.9217 13.4214 14.1716 14.1716C13.4214 14.9217 13 15.9391 13 17V20C13 21.0609 13.4214 22.0783 14.1716 22.8284C14.9217 23.5786 15.9391 24 17 24H20C21.0609 24 22.0783 23.5786 22.8284 22.8284C23.5786 22.0783 24 21.0609 24 20V17C24 15.9391 23.5786 14.9217 22.8284 14.1716C22.0783 13.4214 21.0609 13 20 13ZM22 20C22 20.5304 21.7893 21.0391 21.4142 21.4142C21.0391 21.7893 20.5304 22 20 22H17C16.4696 22 15.9609 21.7893 15.5858 21.4142C15.2107 21.0391 15 20.5304 15 20V17C15 16.4696 15.2107 15.9609 15.5858 15.5858C15.9609 15.2107 16.4696 15 17 15H20C20.5304 15 21.0391 15.2107 21.4142 15.5858C21.7893 15.9609 22 16.4696 22 17V20Z"></path> </g> <defs xmlns="http://www.w3.org/2000/svg"> <clipPath id="clip0_5_1246"> <rect width="24" height="24"></rect> </clipPath> </defs> </symbol><symbol viewBox="0 0 24 24" id="portrait"> <g xmlns="http://www.w3.org/2000/svg" clip-path="url(#clip0_5_1241)"> <path d="M19 0H5C3.67441 0.00158786 2.40356 0.528882 1.46622 1.46622C0.528882 2.40356 0.00158786 3.67441 0 5L0 19C0.00158786 20.3256 0.528882 21.5964 1.46622 22.5338C2.40356 23.4711 3.67441 23.9984 5 24H19C20.3256 23.9984 21.5964 23.4711 22.5338 22.5338C23.4711 21.5964 23.9984 20.3256 24 19V5C23.9984 3.67441 23.4711 2.40356 22.5338 1.46622C21.5964 0.528882 20.3256 0.00158786 19 0V0ZM7 22V21C7 19.6739 7.52678 18.4021 8.46447 17.4645C9.40215 16.5268 10.6739 16 12 16C13.3261 16 14.5979 16.5268 15.5355 17.4645C16.4732 18.4021 17 19.6739 17 21V22H7ZM22 19C22 19.7956 21.6839 20.5587 21.1213 21.1213C20.5587 21.6839 19.7956 22 19 22V21C19 19.1435 18.2625 17.363 16.9497 16.0503C15.637 14.7375 13.8565 14 12 14C10.1435 14 8.36301 14.7375 7.05025 16.0503C5.7375 17.363 5 19.1435 5 21V22C4.20435 22 3.44129 21.6839 2.87868 21.1213C2.31607 20.5587 2 19.7956 2 19V5C2 4.20435 2.31607 3.44129 2.87868 2.87868C3.44129 2.31607 4.20435 2 5 2H19C19.7956 2 20.5587 2.31607 21.1213 2.87868C21.6839 3.44129 22 4.20435 22 5V19Z"></path> <path d="M12 4C11.2089 4 10.4355 4.2346 9.77772 4.67412C9.11993 5.11365 8.60723 5.73836 8.30448 6.46927C8.00173 7.20017 7.92252 8.00444 8.07686 8.78036C8.2312 9.55629 8.61216 10.269 9.17157 10.8284C9.73098 11.3878 10.4437 11.7688 11.2196 11.9231C11.9956 12.0775 12.7998 11.9983 13.5307 11.6955C14.2616 11.3928 14.8864 10.8801 15.3259 10.2223C15.7654 9.56448 16 8.79113 16 8C16 6.93913 15.5786 5.92172 14.8284 5.17157C14.0783 4.42143 13.0609 4 12 4ZM12 10C11.6044 10 11.2178 9.8827 10.8889 9.66294C10.56 9.44318 10.3036 9.13082 10.1522 8.76537C10.0009 8.39991 9.96126 7.99778 10.0384 7.60982C10.1156 7.22186 10.3061 6.86549 10.5858 6.58579C10.8655 6.30608 11.2219 6.1156 11.6098 6.03843C11.9978 5.96126 12.3999 6.00087 12.7654 6.15224C13.1308 6.30362 13.4432 6.55996 13.6629 6.88886C13.8827 7.21776 14 7.60444 14 8C14 8.53043 13.7893 9.03914 13.4142 9.41421C13.0391 9.78929 12.5304 10 12 10Z"></path> </g> <defs xmlns="http://www.w3.org/2000/svg"> <clipPath id="clip0_5_1241"> <rect width="24" height="24"></rect> </clipPath> </defs> </symbol><symbol viewBox="0 0 24 24" id="book"> <g xmlns="http://www.w3.org/2000/svg" clip-path="url(#clip0_5_1237)"> <path d="M22.2 2.16291C21.6378 1.69284 20.9791 1.3523 20.2705 1.16548C19.5619 0.978651 18.8209 0.95012 18.1 1.08191L14.278 1.77591C13.3956 1.93795 12.5933 2.39194 12 3.06491C11.4052 2.39077 10.6006 1.93669 9.716 1.77591L5.9 1.08191C5.17916 0.950005 4.43813 0.978161 3.72938 1.16439C3.02062 1.35061 2.36146 1.69035 1.79857 2.15956C1.23567 2.62877 0.782786 3.21598 0.471982 3.87962C0.161178 4.54326 4.88124e-05 5.2671 0 5.99991L0 16.7929C5.74558e-05 17.9637 0.410977 19.0974 1.16113 19.9963C1.91129 20.8952 2.95311 21.5023 4.105 21.7119L10.391 22.8549C11.455 23.0482 12.545 23.0482 13.609 22.8549L19.9 21.7119C21.051 21.5013 22.0916 20.8937 22.8408 19.9949C23.5899 19.0961 24.0002 17.963 24 16.7929V5.99991C24.0005 5.26736 23.8394 4.54371 23.5283 3.8805C23.2171 3.2173 22.7636 2.63085 22.2 2.16291ZM11 20.9279C10.916 20.9159 10.832 20.9019 10.748 20.8869L4.463 19.7449C3.77176 19.6191 3.14659 19.2548 2.69649 18.7153C2.24638 18.1758 1.99989 17.4955 2 16.7929V5.99991C2 5.20426 2.31607 4.4412 2.87868 3.87859C3.44129 3.31598 4.20435 2.99991 5 2.99991C5.18109 3.00034 5.36179 3.01674 5.54 3.04891L9.36 3.74891C9.81961 3.83301 10.2353 4.07538 10.5348 4.43395C10.8344 4.79253 10.999 5.24467 11 5.71191V20.9279ZM22 16.7929C22.0001 17.4955 21.7536 18.1758 21.3035 18.7153C20.8534 19.2548 20.2282 19.6191 19.537 19.7449L13.252 20.8869C13.168 20.9019 13.084 20.9159 13 20.9279V5.71191C12.9999 5.24352 13.1643 4.78997 13.4643 4.43032C13.7644 4.07067 14.1812 3.82775 14.642 3.74391L18.463 3.04391C18.8957 2.96518 19.3405 2.98256 19.7657 3.09482C20.191 3.20708 20.5863 3.41147 20.9238 3.69352C21.2613 3.97556 21.5326 4.32836 21.7186 4.72693C21.9046 5.1255 22.0007 5.56009 22 5.99991V16.7929Z"></path> </g> <defs xmlns="http://www.w3.org/2000/svg"> <clipPath id="clip0_5_1237"> <rect width="24" height="24"></rect> </clipPath> </defs> </symbol><symbol viewBox="0 0 24 24" id="document"> <g xmlns="http://www.w3.org/2000/svg" clip-path="url(#clip0_5_1233)"> <path d="M17 14C17 14.2652 16.8946 14.5196 16.7071 14.7071C16.5196 14.8947 16.2652 15 16 15H8C7.73478 15 7.48043 14.8947 7.29289 14.7071C7.10536 14.5196 7 14.2652 7 14C7 13.7348 7.10536 13.4805 7.29289 13.2929C7.48043 13.1054 7.73478 13 8 13H16C16.2652 13 16.5196 13.1054 16.7071 13.2929C16.8946 13.4805 17 13.7348 17 14ZM13 17H8C7.73478 17 7.48043 17.1054 7.29289 17.2929C7.10536 17.4805 7 17.7348 7 18C7 18.2652 7.10536 18.5196 7.29289 18.7071C7.48043 18.8947 7.73478 19 8 19H13C13.2652 19 13.5196 18.8947 13.7071 18.7071C13.8946 18.5196 14 18.2652 14 18C14 17.7348 13.8946 17.4805 13.7071 17.2929C13.5196 17.1054 13.2652 17 13 17ZM22 10.485V19C21.9984 20.3256 21.4711 21.5965 20.5338 22.5338C19.5964 23.4711 18.3256 23.9984 17 24H7C5.67441 23.9984 4.40356 23.4711 3.46622 22.5338C2.52888 21.5965 2.00159 20.3256 2 19V5.00002C2.00159 3.67443 2.52888 2.40358 3.46622 1.46624C4.40356 0.528905 5.67441 0.00161091 7 2.30487e-05H11.515C12.4346 -0.00234388 13.3456 0.177611 14.1952 0.529482C15.0449 0.881354 15.8163 1.39816 16.465 2.05002L19.949 5.53602C20.6012 6.18426 21.1184 6.95548 21.4704 7.805C21.8225 8.65451 22.0025 9.56545 22 10.485ZM15.051 3.46402C14.7363 3.15918 14.3829 2.89695 14 2.68402V7.00002C14 7.26524 14.1054 7.51959 14.2929 7.70713C14.4804 7.89467 14.7348 8.00002 15 8.00002H19.316C19.103 7.61721 18.8404 7.26417 18.535 6.95002L15.051 3.46402ZM20 10.485C20 10.32 19.968 10.162 19.953 10H15C14.2044 10 13.4413 9.68395 12.8787 9.12134C12.3161 8.55873 12 7.79567 12 7.00002V2.04702C11.838 2.03202 11.679 2.00002 11.515 2.00002H7C6.20435 2.00002 5.44129 2.31609 4.87868 2.8787C4.31607 3.44131 4 4.20437 4 5.00002V19C4 19.7957 4.31607 20.5587 4.87868 21.1213C5.44129 21.684 6.20435 22 7 22H17C17.7956 22 18.5587 21.684 19.1213 21.1213C19.6839 20.5587 20 19.7957 20 19V10.485Z"></path> </g> <defs xmlns="http://www.w3.org/2000/svg"> <clipPath id="clip0_5_1233"> <rect width="24" height="24"></rect> </clipPath> </defs> </symbol><symbol viewBox="0 0 24 24" id="document-signed"> <g xmlns="http://www.w3.org/2000/svg" clip-path="url(#clip0_5_1229)"> <path d="M19.535 3.12202L17.879 1.46402C17.4157 0.998332 16.8646 0.629159 16.2576 0.377864C15.6507 0.126569 14.9999 -0.00185599 14.343 2.02654e-05H8C6.67441 0.00160812 5.40356 0.528902 4.46622 1.46624C3.52888 2.40358 3.00159 3.67443 3 5.00002V19C3.00159 20.3256 3.52888 21.5965 4.46622 22.5338C5.40356 23.4711 6.67441 23.9984 8 24H16C17.3256 23.9984 18.5964 23.4711 19.5338 22.5338C20.4711 21.5965 20.9984 20.3256 21 19V6.65702C21.0016 6.0002 20.873 5.34959 20.6215 4.74281C20.37 4.13604 20.0007 3.58515 19.535 3.12202ZM18.121 4.53602C18.2628 4.67734 18.3898 4.83282 18.5 5.00002H16V2.50002C16.1669 2.61134 16.3227 2.7386 16.465 2.88002L18.121 4.53602ZM19 19C19 19.7957 18.6839 20.5587 18.1213 21.1213C17.5587 21.684 16.7956 22 16 22H8C7.20435 22 6.44129 21.684 5.87868 21.1213C5.31607 20.5587 5 19.7957 5 19V5.00002C5 4.20437 5.31607 3.44131 5.87868 2.8787C6.44129 2.31609 7.20435 2.00002 8 2.00002H14V5.00002C14 5.53045 14.2107 6.03916 14.5858 6.41423C14.9609 6.78931 15.4696 7.00002 16 7.00002H19V19ZM16 9.00002C16.2652 9.00002 16.5196 9.10538 16.7071 9.29291C16.8946 9.48045 17 9.7348 17 10C17 10.2652 16.8946 10.5196 16.7071 10.7071C16.5196 10.8947 16.2652 11 16 11H8C7.73478 11 7.48043 10.8947 7.29289 10.7071C7.10536 10.5196 7 10.2652 7 10C7 9.7348 7.10536 9.48045 7.29289 9.29291C7.48043 9.10538 7.73478 9.00002 8 9.00002H16ZM17 14C17 14.2652 16.8946 14.5196 16.7071 14.7071C16.5196 14.8947 16.2652 15 16 15H8C7.73478 15 7.48043 14.8947 7.29289 14.7071C7.10536 14.5196 7 14.2652 7 14C7 13.7348 7.10536 13.4804 7.29289 13.2929C7.48043 13.1054 7.73478 13 8 13H16C16.2652 13 16.5196 13.1054 16.7071 13.2929C16.8946 13.4804 17 13.7348 17 14ZM16.808 17.413C16.9634 17.6269 17.0279 17.8936 16.9872 18.1548C16.9466 18.416 16.8041 18.6505 16.591 18.807C15.5778 19.529 14.3778 19.9432 13.135 20C12.4089 19.9965 11.7048 19.7501 11.135 19.3C10.807 19.075 10.682 19 10.435 19C9.76643 19.1035 9.13562 19.3769 8.603 19.794C8.39175 19.9446 8.13024 20.0072 7.87369 19.9686C7.61715 19.93 7.38565 19.7932 7.22808 19.5871C7.07052 19.381 6.99922 19.1217 7.02925 18.864C7.05927 18.6063 7.18827 18.3704 7.389 18.206C8.27018 17.522 9.32828 17.1036 10.439 17C11.1051 17.0107 11.7491 17.2409 12.271 17.655C12.5089 17.869 12.8152 17.9913 13.135 18C13.9527 17.9388 14.739 17.6594 15.412 17.191C15.6266 17.0355 15.8942 16.9715 16.1559 17.0131C16.4177 17.0547 16.6522 17.1986 16.808 17.413Z"></path> </g> <defs xmlns="http://www.w3.org/2000/svg"> <clipPath id="clip0_5_1229"> <rect width="24" height="24"></rect> </clipPath> </defs> </symbol><symbol viewBox="0 0 24 24" id="bag"> <g xmlns="http://www.w3.org/2000/svg" clip-path="url(#clip0_5_1282)"> <path d="M18 6C18 4.4087 17.3679 2.88258 16.2426 1.75736C15.1174 0.632141 13.5913 0 12 0C10.4087 0 8.88258 0.632141 7.75736 1.75736C6.63214 2.88258 6 4.4087 6 6H0V21C0 21.7956 0.31607 22.5587 0.87868 23.1213C1.44129 23.6839 2.20435 24 3 24H21C21.7956 24 22.5587 23.6839 23.1213 23.1213C23.6839 22.5587 24 21.7956 24 21V6H18ZM12 2C13.0609 2 14.0783 2.42143 14.8284 3.17157C15.5786 3.92172 16 4.93913 16 6H8C8 4.93913 8.42143 3.92172 9.17157 3.17157C9.92172 2.42143 10.9391 2 12 2ZM22 21C22 21.2652 21.8946 21.5196 21.7071 21.7071C21.5196 21.8946 21.2652 22 21 22H3C2.73478 22 2.48043 21.8946 2.29289 21.7071C2.10536 21.5196 2 21.2652 2 21V8H6V10H8V8H16V10H18V8H22V21Z"></path> </g> <defs xmlns="http://www.w3.org/2000/svg"> <clipPath id="clip0_5_1282"> <rect width="24" height="24"></rect> </clipPath> </defs> </symbol><symbol viewBox="0 0 24 25" id="chat"> <g xmlns="http://www.w3.org/2000/svg" clip-path="url(#clip0_5_713)"> <path d="M4 4.01221H20V16.0122H5.17L4 17.1822V4.01221ZM4 2.01221C2.9 2.01221 2.01 2.91221 2.01 4.01221L2 22.0122L6 18.0122H20C21.1 18.0122 22 17.1122 22 16.0122V4.01221C22 2.91221 21.1 2.01221 20 2.01221H4ZM6 12.0122H18V14.0122H6V12.0122ZM6 9.01221H18V11.0122H6V9.01221ZM6 6.01221H18V8.01221H6V6.01221Z"></path> </g> <defs xmlns="http://www.w3.org/2000/svg"> <clipPath id="clip0_5_713"> <rect width="24" height="24" transform="translate(0 0.012207)"></rect> </clipPath> </defs> </symbol><symbol viewBox="0 0 24 24" id="exit"> <g xmlns="http://www.w3.org/2000/svg" clip-path="url(#clip0_5_1224)"> <path d="M7 22H5C4.20435 22 3.44129 21.6839 2.87868 21.1213C2.31607 20.5587 2 19.7956 2 19V5C2 4.20435 2.31607 3.44129 2.87868 2.87868C3.44129 2.31607 4.20435 2 5 2H7C7.26522 2 7.51957 1.89464 7.70711 1.70711C7.89464 1.51957 8 1.26522 8 1C8 0.734784 7.89464 0.48043 7.70711 0.292893C7.51957 0.105357 7.26522 0 7 0L5 0C3.67441 0.00158786 2.40356 0.528882 1.46622 1.46622C0.528882 2.40356 0.00158786 3.67441 0 5L0 19C0.00158786 20.3256 0.528882 21.5964 1.46622 22.5338C2.40356 23.4711 3.67441 23.9984 5 24H7C7.26522 24 7.51957 23.8946 7.70711 23.7071C7.89464 23.5196 8 23.2652 8 23C8 22.7348 7.89464 22.4804 7.70711 22.2929C7.51957 22.1054 7.26522 22 7 22Z"></path> <path d="M18.538 18.7069L23.125 14.1209C23.6857 13.5574 24.0005 12.7948 24.0005 11.9999C24.0005 11.205 23.6857 10.4424 23.125 9.87892L18.538 5.29292C18.3494 5.11076 18.0968 5.00997 17.8346 5.01224C17.5724 5.01452 17.3216 5.11969 17.1362 5.3051C16.9508 5.49051 16.8456 5.74132 16.8433 6.00352C16.841 6.26571 16.9418 6.51832 17.124 6.70692L21.416 10.9999H6C5.73478 10.9999 5.48043 11.1053 5.29289 11.2928C5.10536 11.4803 5 11.7347 5 11.9999C5 12.2651 5.10536 12.5195 5.29289 12.707C5.48043 12.8946 5.73478 12.9999 6 12.9999H21.417L17.124 17.2929C17.0285 17.3852 16.9523 17.4955 16.8999 17.6175C16.8475 17.7395 16.8199 17.8707 16.8188 18.0035C16.8176 18.1363 16.8429 18.268 16.8932 18.3909C16.9435 18.5138 17.0177 18.6254 17.1116 18.7193C17.2055 18.8132 17.3172 18.8875 17.44 18.9377C17.5629 18.988 17.6946 19.0133 17.8274 19.0122C17.9602 19.011 18.0914 18.9834 18.2134 18.931C18.3354 18.8786 18.4458 18.8024 18.538 18.7069Z"></path> </g> <defs xmlns="http://www.w3.org/2000/svg"> <clipPath id="clip0_5_1224"> <rect width="24" height="24"></rect> </clipPath> </defs> </symbol></svg>